<svg width="48" height="30" viewBox="0 0 48 30" fill="none" xmlns="http://www.w3.org/2000/svg">
<path d="M13.8839 0C15.2881 0 16.5643 0.120016 17.7244 0.376051C18.8786 0.636085 19.8647 1.03614 20.6948 1.59621C21.5149 2.15629 22.161 2.89639 22.6151 3.83651C23.0651 4.77664 23.2951 5.93679 23.2951 7.29697C23.2951 8.77717 22.9551 10.0173 22.281 11.0175C21.6049 12.0176 20.6068 12.8177 19.2766 13.4578C21.0889 13.9779 22.429 14.898 23.3212 16.1982C24.2173 17.5183 24.6513 19.0985 24.6513 20.9188C24.6513 22.419 24.3913 23.6992 23.8312 24.7793C23.2711 25.8795 22.491 26.7796 21.5109 27.4797C20.5508 28.1758 19.4106 28.6798 18.1705 29.0139C16.9249 29.3509 15.6403 29.5218 14.35 29.5219H0.00604248V0.0140028H13.8839V0ZM33.8906 24.3272C34.7707 25.1834 36.0368 25.6134 37.6791 25.6134C38.8592 25.6134 39.8794 25.3174 40.7395 24.7193C41.5876 24.1392 42.0997 23.4991 42.2997 22.839H47.4764C46.6703 25.3994 45.3801 27.2396 43.6759 28.3398C41.9756 29.4599 39.9074 30 37.515 30C35.8408 30 34.3466 29.74 32.9704 29.1999C31.6761 28.69 30.5038 27.913 29.53 26.9196C28.5772 25.8993 27.844 24.6942 27.3757 23.3791C26.8696 21.9989 26.6296 20.4787 26.6296 18.8385C26.6296 17.2323 26.8996 15.7581 27.4357 14.3779C27.9758 12.9777 28.7239 11.8176 29.676 10.7974C30.6661 9.7773 31.8023 9.0072 33.1485 8.40912C34.4946 7.81104 35.9488 7.54301 37.5891 7.54301C39.4093 7.54301 40.9695 7.87105 42.3497 8.58915C43.6559 9.2567 44.7918 10.2147 45.6701 11.3895C46.5503 12.5617 47.1703 13.9099 47.5504 15.4301C47.9304 16.9303 48.0505 18.5105 47.9704 20.1907H32.5884C32.5884 21.8709 33.1485 23.4551 34.0086 24.3212L33.8486 24.3813L33.8906 24.3272ZM13.4078 24.4273C14.0419 24.4273 14.648 24.3672 15.2201 24.2412C15.8001 24.1212 16.3162 23.9112 16.7463 23.6412C17.1663 23.3711 17.5264 22.9851 17.7864 22.475C18.0464 21.9949 18.1665 21.3348 18.1665 20.5547C18.1665 19.0545 17.7264 17.9744 16.8863 17.3143C16.0262 16.6742 14.906 16.3542 13.5058 16.3542H6.48691V24.4553H13.4078V24.3953V24.4273ZM40.6255 13.1258C39.9214 12.3556 38.7452 11.9416 37.311 11.9416C36.3749 11.9416 35.6008 12.0896 34.9787 12.4177C34.3746 12.7177 33.8786 13.1177 33.4985 13.5978C33.1185 14.0779 32.8644 14.5579 32.7144 15.098C32.5644 15.6181 32.4744 16.0981 32.4444 16.5182H41.9696C41.8296 15.018 41.3096 13.9179 40.6095 13.1378V13.1578L40.6255 13.1258ZM13.0478 11.8956C14.1959 11.8956 15.1481 11.6276 15.8982 11.0715C16.6463 10.5314 17.0063 9.63128 17.0063 8.39512C17.0063 7.70703 16.8663 7.14495 16.6463 6.70289C16.3862 6.26284 16.0462 5.92279 15.6461 5.67876C15.2261 5.43072 14.746 5.2587 14.2059 5.16469C13.6518 5.06199 13.0892 5.01242 12.5257 5.01667H6.4669V11.8976H13.0478V11.8956ZM31.2462 1.97826H43.1838V4.88665H31.2462V1.95426V1.97426V1.97826Z" fill="#EAEAEA"/>
</svg>
