<svg width="31" height="30" viewBox="0 0 31 30" fill="none" xmlns="http://www.w3.org/2000/svg">
<path d="M30.5435 15.0006C30.5435 6.71528 23.8283 0 15.5442 0C7.26008 0 0.5448 6.71528 0.5448 15.0006C0.5448 22.4859 6.03003 28.6912 13.2003 29.8162V19.3358H9.39267V14.9994H13.2003V11.6955C13.2003 7.93533 15.4404 5.85899 18.8656 5.85899C20.5069 5.85899 22.2232 6.15151 22.2232 6.15151V9.84291H20.3331C18.4705 9.84291 17.8893 10.9992 17.8893 12.1855V15.0006H22.0494L21.3844 19.3371H17.8893V29.8175C25.0596 28.6924 30.5448 22.4872 30.5448 15.0006H30.5435Z" fill="#EAEAEA"/>
</svg>
