<svg width="21" height="30" viewBox="0 0 21 30" fill="none" xmlns="http://www.w3.org/2000/svg">
<path d="M10.994 15C10.994 13.6739 11.5207 12.4021 12.4584 11.4645C13.3961 10.5268 14.6679 10 15.994 10C17.32 10 18.5918 10.5268 19.5295 11.4645C20.4672 12.4021 20.994 13.6739 20.994 15C20.994 16.3261 20.4672 17.5979 19.5295 18.5355C18.5918 19.4732 17.32 20 15.994 20C14.6679 20 13.3961 19.4732 12.4584 18.5355C11.5207 17.5979 10.994 16.3261 10.994 15ZM0.993958 25C0.993958 23.6739 1.52074 22.4021 2.45842 21.4645C3.39611 20.5268 4.66788 20 5.99396 20H10.994V25C10.994 26.3261 10.4672 27.5979 9.52949 28.5355C8.59181 29.4732 7.32004 30 5.99396 30C4.66788 30 3.39611 29.4732 2.45842 28.5355C1.52074 27.5979 0.993958 26.3261 0.993958 25ZM10.994 0V10H15.994C17.32 10 18.5918 9.47322 19.5295 8.53553C20.4672 7.59785 20.994 6.32608 20.994 5C20.994 3.67392 20.4672 2.40215 19.5295 1.46447C18.5918 0.526784 17.32 0 15.994 0L10.994 0ZM0.993958 5C0.993958 6.32608 1.52074 7.59785 2.45842 8.53553C3.39611 9.47322 4.66788 10 5.99396 10H10.994V0H5.99396C4.66788 0 3.39611 0.526784 2.45842 1.46447C1.52074 2.40215 0.993958 3.67392 0.993958 5ZM0.993958 15C0.993958 16.3261 1.52074 17.5979 2.45842 18.5355C3.39611 19.4732 4.66788 20 5.99396 20H10.994V10H5.99396C4.66788 10 3.39611 10.5268 2.45842 11.4645C1.52074 12.4021 0.993958 13.6739 0.993958 15Z" fill="#EAEAEA"/>
</svg>
