<svg width="31" height="30" viewBox="0 0 31 30" fill="none" xmlns="http://www.w3.org/2000/svg">
<path d="M15.4552 0C7.1677 0 0.4552 6.88677 0.4552 15.3808C0.4552 22.1779 4.7527 27.9419 10.7115 29.9734C11.4615 30.1183 11.7364 29.6427 11.7364 29.2339C11.7364 28.8686 11.724 27.9009 11.7177 26.6191C7.5452 27.5471 6.6652 24.5555 6.6652 24.5555C5.9827 22.7803 4.99645 22.3061 4.99645 22.3061C3.6377 21.3525 5.10145 21.3717 5.10145 21.3717C6.6077 21.4794 7.39895 22.9559 7.39895 22.9559C8.73645 25.3079 10.9102 24.6286 11.7677 24.2351C11.9027 23.2405 12.289 22.5624 12.7177 22.1779C9.38645 21.7934 5.8852 20.4706 5.8852 14.5772C5.8852 12.8981 6.46645 11.5267 7.42895 10.45C7.2602 10.0616 6.75395 8.49792 7.5602 6.37921C7.5602 6.37921 8.81645 5.96649 11.6852 7.95574C12.8852 7.61352 14.1602 7.44433 15.4352 7.43664C16.7102 7.44433 17.9852 7.61352 19.1852 7.95574C22.0352 5.96649 23.2914 6.37921 23.2914 6.37921C24.0977 8.49792 23.5915 10.0616 23.4415 10.45C24.3977 11.5267 24.9789 12.8981 24.9789 14.5772C24.9789 20.486 21.4727 21.787 18.1352 22.1651C18.6602 22.6265 19.1477 23.5699 19.1477 25.0105C19.1477 27.069 19.129 28.7224 19.129 29.2223C19.129 29.6261 19.3915 30.1067 20.1602 29.9529C26.1615 27.9355 30.4552 22.1676 30.4552 15.3808C30.4552 6.88677 23.739 0 15.4552 0Z" fill="#EAEAEA"/>
</svg>
