<svg width="31" height="30" viewBox="0 0 31 30" fill="none" xmlns="http://www.w3.org/2000/svg">
<path d="M15.5448 0C11.4698 0 10.961 0.01875 9.36105 0.09C7.76355 0.165 6.67605 0.41625 5.7198 0.7875C4.73355 1.17 3.89605 1.68375 3.0623 2.5175C2.22855 3.35125 1.71355 4.1875 1.3323 5.175C0.96105 6.13125 0.70855 7.21875 0.6348 8.81625C0.5598 10.4162 0.5448 10.925 0.5448 15C0.5448 19.075 0.56355 19.5838 0.6348 21.1838C0.7098 22.78 0.96105 23.8688 1.3323 24.825C1.70891 25.8261 2.2993 26.733 3.0623 27.4825C3.8114 28.246 4.71842 28.8365 5.7198 29.2125C6.6773 29.5825 7.7648 29.8362 9.36105 29.91C10.961 29.985 11.4698 30 15.5448 30C19.6198 30 20.1286 29.9812 21.7286 29.91C23.3248 29.835 24.4136 29.5825 25.3698 29.2125C26.3706 28.8354 27.2774 28.2451 28.0273 27.4825C28.7911 26.7336 29.3816 25.8265 29.7573 24.825C30.1273 23.8688 30.381 22.78 30.4548 21.1838C30.5298 19.5838 30.5448 19.075 30.5448 15C30.5448 10.925 30.526 10.4162 30.4548 8.81625C30.3798 7.22 30.1273 6.13 29.7573 5.175C29.3805 4.17402 28.7901 3.26716 28.0273 2.5175C27.2787 1.7533 26.3716 1.16274 25.3698 0.7875C24.4136 0.41625 23.3248 0.16375 21.7286 0.09C20.1286 0.015 19.6198 0 15.5448 0ZM15.5448 2.7C19.5485 2.7 20.0261 2.72 21.6073 2.78875C23.0698 2.8575 23.8635 3.1 24.391 3.3075C25.0935 3.57875 25.591 3.90375 26.1185 4.4275C26.6423 4.9525 26.9673 5.45125 27.2385 6.15375C27.4435 6.68125 27.6885 7.475 27.7548 8.9375C27.826 10.52 27.8423 10.995 27.8423 15C27.8423 19.005 27.8235 19.4813 27.7498 21.0625C27.6735 22.525 27.4298 23.3187 27.2236 23.8462C26.9795 24.4972 26.596 25.0868 26.0998 25.5737C25.615 26.0704 25.0257 26.4529 24.3748 26.6937C23.8498 26.8987 23.0436 27.1437 21.5811 27.21C19.9886 27.2812 19.5198 27.2975 15.5073 27.2975C11.4936 27.2975 11.0248 27.2787 9.43355 27.205C7.9698 27.1287 7.16355 26.885 6.63855 26.6788C5.98718 26.4377 5.39815 26.0537 4.9148 25.555C4.41303 25.0734 4.02819 24.4833 3.7898 23.83C3.58355 23.305 3.34105 22.4988 3.2648 21.0363C3.20855 19.4613 3.18855 18.975 3.18855 14.9812C3.18855 10.9862 3.20855 10.4988 3.2648 8.905C3.34105 7.4425 3.58355 6.6375 3.7898 6.1125C4.0523 5.4 4.38855 4.9125 4.9148 4.38625C5.43855 3.8625 5.9273 3.525 6.63855 3.26375C7.16355 3.05625 7.9523 2.8125 9.4148 2.7375C11.0086 2.68125 11.4773 2.6625 15.4885 2.6625L15.5448 2.7ZM15.5448 7.2975C14.5333 7.2975 13.5317 7.49673 12.5972 7.88382C11.6627 8.27091 10.8136 8.83827 10.0983 9.55351C9.38307 10.2688 8.8157 11.1179 8.42862 12.0524C8.04153 12.9869 7.8423 13.9885 7.8423 15C7.8423 16.0115 8.04153 17.0131 8.42862 17.9476C8.8157 18.8821 9.38307 19.7312 10.0983 20.4465C10.8136 21.1617 11.6627 21.7291 12.5972 22.1162C13.5317 22.5033 14.5333 22.7025 15.5448 22.7025C17.5876 22.7025 19.5468 21.891 20.9913 20.4465C22.4358 19.002 23.2473 17.0428 23.2473 15C23.2473 12.9572 22.4358 10.998 20.9913 9.55351C19.5468 8.10901 17.5876 7.2975 15.5448 7.2975ZM15.5448 20C12.7823 20 10.5448 17.7625 10.5448 15C10.5448 12.2375 12.7823 10 15.5448 10C18.3073 10 20.5448 12.2375 20.5448 15C20.5448 17.7625 18.3073 20 15.5448 20ZM25.3523 6.99375C25.3349 7.45953 25.1377 7.90045 24.802 8.22384C24.4664 8.54723 24.0184 8.72791 23.5523 8.72791C23.0862 8.72791 22.6382 8.54723 22.3026 8.22384C21.9669 7.90045 21.7697 7.45953 21.7523 6.99375C21.7523 6.51636 21.9419 6.05852 22.2795 5.72096C22.6171 5.38339 23.0749 5.19375 23.5523 5.19375C24.0297 5.19375 24.4875 5.38339 24.8251 5.72096C25.1627 6.05852 25.3523 6.51636 25.3523 6.99375Z" fill="#EAEAEA"/>
</svg>
