<svg width="31" height="30" viewBox="0 0 31 30" fill="none" xmlns="http://www.w3.org/2000/svg">
<path d="M26.014 25.565H21.5714V18.6038C21.5714 16.9438 21.5377 14.8075 19.2565 14.8075C16.9402 14.8075 16.5864 16.6137 16.5864 18.4812V25.565H12.1439V11.25H16.4115V13.2012H16.469C17.0652 12.0762 18.5152 10.8888 20.6814 10.8888C25.1827 10.8888 26.0152 13.8513 26.0152 17.7075L26.014 25.565ZM7.12645 9.29125C6.78755 9.29141 6.45194 9.22474 6.13883 9.09505C5.82573 8.96536 5.54127 8.77519 5.30175 8.53543C5.06222 8.29568 4.87233 8.01104 4.74294 7.69781C4.61355 7.38458 4.54721 7.0489 4.5477 6.71C4.54795 6.19972 4.6995 5.70098 4.9832 5.27684C5.2669 4.8527 5.67 4.52221 6.14153 4.32716C6.61306 4.13212 7.13184 4.08128 7.63226 4.18107C8.13268 4.28086 8.59227 4.5268 8.95292 4.8878C9.31356 5.24879 9.55906 5.70862 9.65837 6.20914C9.75768 6.70966 9.70633 7.22839 9.51083 7.69973C9.31533 8.17107 8.98445 8.57385 8.56003 8.85714C8.13562 9.14042 7.63673 9.2915 7.12645 9.29125ZM9.35395 25.565H4.89895V11.25H9.35395V25.565ZM28.2365 0H2.66895C1.4452 0 0.4552 0.9675 0.4552 2.16125V27.8387C0.4552 29.0337 1.4452 30 2.66895 30H28.2327C29.4552 30 30.4552 29.0337 30.4552 27.8387V2.16125C30.4552 0.9675 29.4552 0 28.2327 0H28.2365Z" fill="#EAEAEA"/>
</svg>
