<svg width="31" height="30" viewBox="0 0 31 30" fill="none" xmlns="http://www.w3.org/2000/svg">
<path d="M6.16727 5.25968C7.13938 6.01718 7.50425 5.95968 9.3312 5.84218L26.5517 4.85093C26.9166 4.85093 26.6129 4.50093 26.4917 4.44343L23.6301 2.45968C23.0828 2.05219 22.3518 1.58469 20.9523 1.70094L4.27908 2.86843C3.67183 2.92593 3.54934 3.21843 3.79172 3.45093L6.16727 5.25968ZM7.20063 9.10967V26.4896C7.20063 27.4234 7.68669 27.7734 8.7826 27.7146L27.7075 26.6646C28.8034 26.6071 28.9259 25.9646 28.9259 25.2059V7.94217C28.9259 7.18468 28.6223 6.77593 27.9512 6.83343L8.17405 7.94217C7.44431 8.00092 7.20063 8.35217 7.20063 9.10967ZM25.8832 10.0409C26.0044 10.5659 25.8832 11.0909 25.3359 11.1509L24.4237 11.3259V24.1559C23.6314 24.5646 22.9017 24.7984 22.2931 24.7984C21.3184 24.7984 21.0747 24.5059 20.345 23.6321L14.3807 14.6497V23.3396L16.2676 23.7496C16.2676 23.7496 16.2676 24.7996 14.7456 24.7996L10.547 25.0321C10.4258 24.7996 10.547 24.2159 10.9731 24.0996L12.0677 23.8084V12.3172L10.5496 12.1997C10.4271 11.6747 10.732 10.9172 11.583 10.8584L16.0865 10.5672L22.2945 19.6659V11.6159L20.7112 11.4422C20.59 10.7997 21.0761 10.3334 21.6846 10.2759L25.8832 10.0409ZM2.87955 1.29344L20.2238 0.0684398C22.3531 -0.10656 22.9017 0.00968991 24.24 0.943438L29.7769 4.67593C30.689 5.31718 30.994 5.49218 30.994 6.19218V26.6646C30.994 27.9471 30.5079 28.7071 28.8047 28.8221L8.66141 29.9896C7.38437 30.0484 6.77452 29.8734 6.10472 29.0559L2.02732 23.9809C1.29758 23.0471 0.993958 22.3484 0.993958 21.5309V3.33343C0.993958 2.28469 1.48132 1.40844 2.87955 1.29344Z" fill="#EAEAEA"/>
</svg>
