<svg width="38" height="30" viewBox="0 0 38 30" fill="none" xmlns="http://www.w3.org/2000/svg">
<path d="M37.3829 3.57325C36.0011 4.18164 34.5373 4.58323 33.0384 4.7651C34.6165 3.81662 35.798 2.32918 36.3649 0.577478C34.9023 1.431 33.2814 2.05229 31.5559 2.39832C30.4175 1.18098 28.9091 0.373589 27.2647 0.101509C25.6204 -0.17057 23.9323 0.10789 22.4624 0.893649C20.9926 1.67941 19.8233 2.9285 19.1362 4.44695C18.4491 5.9654 18.2825 7.66824 18.6624 9.29105C12.3726 8.99424 6.79778 5.97386 3.06691 1.40793C2.38839 2.56104 2.03448 3.87625 2.04268 5.21415C2.04268 7.84391 3.38063 10.1553 5.40754 11.5133C4.20625 11.475 3.03149 11.1502 1.98117 10.5659V10.6597C1.98049 12.4074 2.58443 14.1014 3.69052 15.4545C4.79662 16.8075 6.33674 17.7362 8.0496 18.083C6.93972 18.3804 5.77727 18.4251 4.64784 18.2138C5.13419 19.7177 6.07779 21.0323 7.34703 21.9743C8.61627 22.9163 10.1479 23.4387 11.7282 23.4687C9.05151 25.5692 5.74659 26.7093 2.34411 26.7059C1.74434 26.7059 1.14611 26.6705 0.5448 26.6028C4.01379 28.824 8.04732 30.0031 12.1665 30C26.0903 30 33.6951 18.4721 33.6951 8.49135C33.6951 8.16994 33.6951 7.84545 33.672 7.5225C35.1576 6.45344 36.439 5.1262 37.4552 3.60401L37.3829 3.57325Z" fill="#EAEAEA"/>
</svg>
