<svg width="100" height="100" viewBox="0 0 100 100" fill="none" xmlns="http://www.w3.org/2000/svg">
<path d="M18.4209 26.4326C18.083 26.4326 17.7484 26.5027 17.4362 26.6389C17.124 26.7751 16.8404 26.9748 16.6017 27.2264C16.3629 27.4781 16.1737 27.7768 16.0448 28.1055C15.9159 28.4342 15.8499 28.7864 15.8505 29.1419V56.212C15.8505 65.1951 22.7539 72.4783 31.265 72.4783C39.7777 72.4783 46.6795 65.1951 46.6795 56.212V37.265C46.6795 35.77 45.5284 34.5573 44.1091 34.5573C43.7714 34.5577 43.4371 34.6282 43.1253 34.7646C42.8135 34.901 42.5304 35.1007 42.2919 35.3523C42.0535 35.604 41.8646 35.9025 41.7359 36.231C41.6072 36.5595 41.5413 36.9114 41.5419 37.2667V56.1129C41.5419 62.1767 36.9311 67.0663 31.265 67.0663C25.5989 67.0663 20.9882 62.1783 20.9882 56.1146V29.1419C20.9882 27.6453 19.8387 26.4326 18.4209 26.4326ZM56.9532 13C53.952 12.9994 51.0157 13.9198 48.5041 15.6484C45.9925 17.3771 44.0146 19.8388 42.8127 22.7322C42.0688 24.5177 43.3492 26.5149 45.2012 26.5149C45.7078 26.5111 46.2025 26.3528 46.6253 26.0592C47.0481 25.7655 47.3808 25.3491 47.5832 24.8604C49.2021 21.0592 52.7927 18.4137 56.95 18.4137C62.6241 18.4137 67.2397 23.3386 67.2397 29.3889V56.2523C67.2397 56.9698 67.5106 57.6579 67.9928 58.1652C68.475 58.6725 69.129 58.9575 69.8109 58.9575C70.4928 58.9575 71.1468 58.6725 71.629 58.1652C72.1112 57.6579 72.3821 56.9698 72.3821 56.2523V29.2343C72.3821 20.2681 65.4723 13 56.95 13H56.9532Z" fill="#D9D9D9"/>
<path d="M56.8957 26.5216C55.4748 26.5216 54.3205 27.7344 54.3205 29.2259V56.2423C54.3205 65.2102 61.2415 72.4766 69.7781 72.4766C78.3132 72.4766 85.2341 65.2068 85.2341 56.2423V53.5581C85.2341 52.0665 84.0798 50.8538 82.6589 50.8538C81.238 50.8538 80.0837 52.0665 80.0837 53.5581V56.1448C80.0837 62.1985 75.4602 67.1217 69.7781 67.1217C64.0945 67.1217 59.4725 62.1951 59.4725 56.1448V29.2259C59.4725 27.7344 58.3182 26.5216 56.8957 26.5216ZM3 29.236C3 20.2698 9.9018 13 18.4129 13C26.9256 13 33.8274 20.2681 33.8274 29.236V56.2523C33.8039 56.9526 33.523 57.616 33.0438 58.1027C32.5647 58.5894 31.9246 58.8614 31.2586 58.8614C30.5926 58.8614 29.9525 58.5894 29.4734 58.1027C28.9942 57.616 28.7133 56.9526 28.6898 56.2523V29.3922C28.6898 23.3419 24.079 18.4154 18.4129 18.4154C12.7468 18.4154 8.13764 23.3386 8.13764 29.3922V34.6262C8.11417 35.3265 7.83325 35.9898 7.35406 36.4765C6.87488 36.9632 6.23485 37.2352 5.56882 37.2352C4.90279 37.2352 4.26276 36.9632 3.78357 36.4765C3.30439 35.9898 3.02347 35.3265 3 34.6262V29.2343L3 29.236ZM5.38681 45.4401C4.02976 45.5358 3 46.7956 3 48.2334V57.3257C3 64.886 5.82586 71.8568 10.4159 77.0387C10.9044 77.5896 11.5654 77.8651 12.2248 77.8651C12.8857 77.8651 13.502 77.6081 13.9905 77.0924C14.4484 76.6101 14.7108 75.96 14.7227 75.2784C14.7346 74.5969 14.4951 73.937 14.0544 73.4374C10.235 69.1775 8.10998 63.5412 8.11529 57.6851V48.1377C8.11529 46.6444 6.96738 45.4334 5.55605 45.4334L5.38681 45.4401ZM89.0115 13.0084H88.8375C88.486 13.016 88.1351 13.0457 87.787 13.0974C87.771 13.0974 87.7598 13.1008 87.7439 13.1041C85.602 13.4256 83.6422 14.549 82.2242 16.2683C80.8062 17.9875 80.0253 20.1872 80.0246 22.4634V40.0281C80.0246 41.5197 81.1741 42.7307 82.5919 42.7307C82.6493 42.7307 82.7084 42.7307 82.7643 42.7257C84.1277 42.63 85.1591 41.3735 85.1591 39.9374V22.581C85.1591 20.4024 86.7492 18.5245 88.8199 18.417C89.7935 18.3634 90.7497 18.7036 91.4925 19.3678C91.5308 19.403 91.5692 19.4349 91.6091 19.4736C91.649 19.5139 91.6937 19.5542 91.732 19.5979C91.7783 19.6466 91.8246 19.6987 91.8709 19.7524C91.914 19.8028 91.9555 19.8532 91.9954 19.9053C92.0369 19.9573 92.0753 20.0111 92.1136 20.0648C92.1423 20.1051 92.1711 20.1438 92.1966 20.1841C92.2477 20.263 92.2972 20.3437 92.3403 20.4243C92.361 20.4596 92.3786 20.4948 92.3962 20.5301C92.4441 20.6225 92.4888 20.7166 92.5335 20.814L92.5654 20.8946C92.6646 21.1377 92.7395 21.391 92.7889 21.6505C92.8129 21.768 92.8304 21.8856 92.8432 22.0082L92.848 22.0754C92.8592 22.2031 92.8671 22.3291 92.8671 22.4601V57.6129C92.8671 58.8307 92.7745 60.0283 92.5957 61.1957C92.5346 61.5826 92.5542 61.9789 92.6531 62.357C92.7521 62.7351 92.928 63.0861 93.1688 63.3855C93.4095 63.685 93.7093 63.9258 94.0473 64.0912C94.3853 64.2566 94.7534 64.3427 95.1262 64.3435H95.1374C96.3987 64.3435 97.4779 63.376 97.6743 62.0591C97.8922 60.5977 98.0011 59.1207 98 57.6415V22.4618C98.0033 20.021 97.1058 17.6742 95.4966 15.916C93.9937 14.2622 91.97 13.2406 89.8034 13.042L89.706 13.0336C89.5295 13.0211 89.3528 13.0121 89.176 13.0067C89.1233 13.0067 89.069 13 89.0147 13L89.0115 13.0084Z" fill="#D9D9D9"/>
<path d="M50.5351 69.737C49.3345 69.737 48.2042 70.3366 47.4857 71.3495L47.4746 71.3663C43.4896 76.9883 37.1306 80.6332 29.9798 80.6332C27.8622 80.6345 25.7559 80.3097 23.7277 79.6691C23.4883 79.5918 23.2488 79.5565 23.0061 79.5565C22.3404 79.5565 21.689 79.837 21.202 80.346C19.837 81.7872 20.4277 84.2362 22.2717 84.8341C24.7128 85.6253 27.3008 85.9999 29.9718 85.9999H30.0356C34.1339 85.9915 38.0119 85.0727 41.486 83.3375C44.9595 81.602 48.0421 79.1084 50.5287 76.0224C53.0563 79.1603 56.2052 81.6792 59.755 83.4026C63.3048 85.1261 67.1697 86.0125 71.0793 85.9999C77.0455 85.9999 82.5551 84.0128 87.0238 80.5543C87.1675 80.4434 87.2936 80.3208 87.4038 80.1948L87.4086 80.1881C87.6912 79.9613 87.9674 79.7312 88.2388 79.4927L88.2867 79.4524C88.5341 79.234 88.7752 79.0157 89.0147 78.7906C89.0578 78.7503 89.1041 78.7083 89.1472 78.6646C89.3484 78.4731 89.5431 78.2783 89.7379 78.0801L89.9742 77.8449C90.1402 77.6736 90.3015 77.4972 90.4612 77.3208C90.5474 77.2268 90.6368 77.1344 90.7246 77.0353L90.7485 77.0101C91.2642 76.4272 91.7607 75.8259 92.2285 75.1994C93.5568 73.429 92.3802 70.8271 90.2424 70.8271H90.1674C89.3899 70.8271 88.6619 71.2134 88.1797 71.8601C87.7984 72.3641 87.3979 72.8516 86.9791 73.3215L86.9711 73.3282C86.3581 74.0152 85.7051 74.6619 85.0186 75.2649L84.9787 75.2985C84.8605 75.4026 84.7392 75.5017 84.621 75.6059L84.5412 75.6731L84.1996 75.9502L84.091 76.0342L83.7605 76.2878C83.719 76.3214 83.6775 76.3517 83.6376 76.3802C83.529 76.4625 83.4189 76.5415 83.3103 76.6187L83.173 76.7161L82.8457 76.9412L82.6988 77.0387C82.5912 77.1119 82.4826 77.1836 82.3731 77.2537L82.2183 77.3511L81.8926 77.5526L81.7329 77.6484C81.6228 77.7156 81.5126 77.7794 81.4024 77.8416L81.2428 77.9306L80.9043 78.1187L80.7495 78.1993C80.6313 78.2615 80.5164 78.3219 80.3982 78.3807L80.2705 78.4429C79.8458 78.6512 79.4116 78.846 78.9725 79.0257L78.8528 79.0761C78.7474 79.1181 78.6404 79.1601 78.5335 79.1987C78.4584 79.2262 78.3839 79.2553 78.31 79.2861L78.0162 79.3919L77.7639 79.4809L77.4766 79.5767L77.2099 79.6623C77.1161 79.6916 77.0219 79.7196 76.9274 79.7463L76.6496 79.8286C76.557 79.8555 76.4612 79.879 76.3686 79.9042C76.1802 79.9515 75.9918 79.9985 75.8034 80.0453L75.508 80.1125L75.2318 80.173C75.1313 80.1948 75.0275 80.2133 74.9285 80.2318C74.8375 80.2486 74.7449 80.267 74.6523 80.2822L74.3426 80.3325C74.2516 80.346 74.1622 80.3628 74.0712 80.3729C73.9626 80.3897 73.854 80.4031 73.7487 80.4165L73.4836 80.4501L73.1484 80.4837L72.8913 80.5089L72.5353 80.5358C72.4539 80.5408 72.3756 80.5492 72.2926 80.5526C72.1617 80.5593 72.0276 80.566 71.8967 80.5694C71.8264 80.5694 71.7594 80.5761 71.6907 80.5795C71.4912 80.5845 71.2868 80.5879 71.0841 80.5879C63.9428 80.5879 57.5918 76.9547 53.6036 71.3529L53.5909 71.3781L53.5749 71.3529C53.2224 70.8536 52.7641 70.4476 52.2365 70.1671C51.7088 69.8866 51.1263 69.7393 50.5351 69.737Z" fill="#D9D9D9"/>
</svg>
