<svg width="100" height="100" viewBox="0 0 100 100" fill="none" xmlns="http://www.w3.org/2000/svg">
<path d="M25.5908 32.178C25.3368 32.178 25.0853 32.2311 24.8506 32.3343C24.616 32.4376 24.4029 32.5888 24.2234 32.7795C24.044 32.9702 23.9017 33.1965 23.8048 33.4456C23.708 33.6946 23.6583 33.9615 23.6588 34.2309V54.7422C23.6588 61.5487 28.8476 67.0673 35.2448 67.0673C41.6432 67.0673 46.8308 61.5487 46.8308 54.7422V40.3858C46.8308 39.2531 45.9656 38.3342 44.8988 38.3342C44.645 38.3345 44.3937 38.3879 44.1594 38.4913C43.925 38.5946 43.7122 38.7459 43.533 38.9366C43.3538 39.1272 43.2117 39.3535 43.115 39.6024C43.0183 39.8512 42.9687 40.1179 42.9692 40.3871V54.6671C42.9692 59.2616 39.5036 62.9665 35.2448 62.9665C30.986 62.9665 27.5204 59.2629 27.5204 54.6684V34.2309C27.5204 33.0969 26.6564 32.178 25.5908 32.178ZM54.5528 22C52.297 21.9996 50.09 22.697 48.2022 24.0068C46.3144 25.3165 44.8278 27.1818 43.9244 29.3742C43.3652 30.7271 44.3276 32.2404 45.7196 32.2404C46.1004 32.2375 46.4722 32.1176 46.79 31.895C47.1078 31.6725 47.3579 31.357 47.51 30.9867C48.7268 28.1065 51.4256 26.102 54.5504 26.102C58.8152 26.102 62.2844 29.8336 62.2844 34.418V54.7727C62.2844 55.3163 62.488 55.8377 62.8505 56.2221C63.2129 56.6065 63.7045 56.8225 64.217 56.8225C64.7296 56.8225 65.2211 56.6065 65.5836 56.2221C65.946 55.8377 66.1496 55.3163 66.1496 54.7727V34.3009C66.1496 27.5071 60.956 22 54.5504 22H54.5528Z" fill="#D9D9D9"/>
<path d="M54.5096 32.2455C53.4416 32.2455 52.574 33.1644 52.574 34.2945V54.7651C52.574 61.5602 57.776 67.066 64.1924 67.066C70.6076 67.066 75.8096 61.5576 75.8096 54.7651V52.7313C75.8096 51.6011 74.942 50.6822 73.874 50.6822C72.806 50.6822 71.9384 51.6011 71.9384 52.7313V54.6913C71.9384 59.2782 68.4632 63.0085 64.1924 63.0085C59.9204 63.0085 56.4464 59.2756 56.4464 54.6913V34.2945C56.4464 33.1644 55.5788 32.2455 54.5096 32.2455ZM14 34.3022C14 27.5084 19.1876 22 25.5848 22C31.9832 22 37.1708 27.5071 37.1708 34.3022V54.7727C37.1532 55.3033 36.942 55.806 36.5818 56.1748C36.2217 56.5435 35.7406 56.7496 35.24 56.7496C34.7394 56.7496 34.2583 56.5435 33.8982 56.1748C33.538 55.806 33.3268 55.3033 33.3092 54.7727V34.4205C33.3092 29.8362 29.8436 26.1033 25.5848 26.1033C21.326 26.1033 17.8616 29.8336 17.8616 34.4205V38.3864C17.844 38.917 17.6328 39.4196 17.2726 39.7884C16.9125 40.1572 16.4314 40.3632 15.9308 40.3632C15.4302 40.3632 14.9491 40.1572 14.589 39.7884C14.2288 39.4196 14.0176 38.917 14 38.3864V34.3009L14 34.3022ZM15.794 46.5802C14.774 46.6527 14 47.6073 14 48.6967V55.586C14 61.3145 16.124 66.5964 19.574 70.5227C19.9412 70.9402 20.438 71.1489 20.9336 71.1489C21.4304 71.1489 21.8936 70.9542 22.2608 70.5635C22.6049 70.198 22.8022 69.7054 22.8111 69.189C22.8201 68.6726 22.64 68.1726 22.3088 67.794C19.438 64.5662 17.8408 60.2956 17.8448 55.8584V48.6242C17.8448 47.4927 16.982 46.5751 15.9212 46.5751L15.794 46.5802ZM78.6488 22.0064H78.518C78.2538 22.0121 77.9901 22.0347 77.7284 22.0738C77.7164 22.0738 77.708 22.0764 77.696 22.0789C76.0861 22.3225 74.613 23.1737 73.5473 24.4764C72.4815 25.7791 71.8945 27.4458 71.894 29.1705V42.4795C71.894 43.6096 72.758 44.5273 73.8236 44.5273C73.8668 44.5273 73.9112 44.5273 73.9532 44.5235C74.978 44.4509 75.7532 43.4989 75.7532 42.4107V29.2596C75.7532 27.6089 76.9484 26.186 78.5048 26.1045C79.2366 26.0639 79.9552 26.3216 80.5136 26.8249C80.5424 26.8516 80.5712 26.8758 80.6012 26.9051C80.6312 26.9356 80.6648 26.9662 80.6936 26.9993C80.7284 27.0362 80.7632 27.0756 80.798 27.1164C80.8304 27.1545 80.8616 27.1927 80.8916 27.2322C80.9228 27.2716 80.9516 27.3124 80.9804 27.3531C81.002 27.3836 81.0236 27.4129 81.0428 27.4435C81.0812 27.5033 81.1184 27.5644 81.1508 27.6255C81.1664 27.6522 81.1796 27.6789 81.1928 27.7056C81.2288 27.7756 81.2624 27.8469 81.296 27.9207L81.32 27.9818C81.3946 28.166 81.4509 28.358 81.488 28.5545C81.506 28.6436 81.5192 28.7327 81.5288 28.8256L81.5324 28.8765C81.5408 28.9733 81.5468 29.0687 81.5468 29.168V55.8036C81.5468 56.7264 81.4772 57.6338 81.3428 58.5184C81.2969 58.8115 81.3116 59.1118 81.386 59.3983C81.4603 59.6848 81.5926 59.9507 81.7735 60.1776C81.9545 60.4045 82.1798 60.587 82.4338 60.7123C82.6879 60.8376 82.9646 60.9029 83.2448 60.9035H83.2532C84.2012 60.9035 85.0124 60.1704 85.16 59.1725C85.3238 58.0653 85.4056 56.9461 85.4048 55.8253V29.1693C85.4073 27.3199 84.7327 25.5417 83.5232 24.2095C82.3936 22.9564 80.8725 22.1823 79.244 22.0318L79.1708 22.0255C79.0381 22.016 78.9053 22.0092 78.7724 22.0051C78.7328 22.0051 78.692 22 78.6512 22L78.6488 22.0064Z" fill="#D9D9D9"/>
<path d="M49.7288 64.9902C48.8264 64.9902 47.9768 65.4445 47.4368 66.212L47.4284 66.2247C44.4332 70.4845 39.6536 73.2464 34.2788 73.2464C32.6872 73.2474 31.104 73.0012 29.5796 72.5158C29.3996 72.4573 29.2196 72.4305 29.0372 72.4305C28.5368 72.4305 28.0472 72.6431 27.6812 73.0287C26.6552 74.1207 27.0992 75.9764 28.4852 76.4294C30.32 77.0289 32.2652 77.3127 34.2728 77.3127H34.3208C37.4012 77.3064 40.316 76.6102 42.9272 75.2954C45.538 73.9804 47.855 72.091 49.724 69.7527C51.6238 72.1304 53.9907 74.0389 56.6588 75.3448C59.3269 76.6506 62.2319 77.3223 65.1704 77.3127C69.6548 77.3127 73.796 75.8071 77.1548 73.1865C77.2628 73.1025 77.3576 73.0096 77.4404 72.9142L77.444 72.9091C77.6564 72.7373 77.864 72.5629 78.068 72.3822L78.104 72.3516C78.29 72.1862 78.4712 72.0207 78.6512 71.8502C78.6836 71.8196 78.7184 71.7878 78.7508 71.7547C78.902 71.6096 79.0484 71.462 79.1948 71.3118L79.3724 71.1336C79.4972 71.0038 79.6184 70.8702 79.7384 70.7365C79.8032 70.6653 79.8704 70.5953 79.9364 70.5202L79.9544 70.5011C80.342 70.0594 80.7152 69.6038 81.0668 69.1291C82.0652 67.7876 81.1808 65.8162 79.574 65.8162H79.5176C78.9332 65.8162 78.386 66.1089 78.0236 66.5989C77.737 66.9808 77.436 67.3501 77.1212 67.7062L77.1152 67.7113C76.6544 68.2318 76.1636 68.7218 75.6476 69.1787L75.6176 69.2042C75.5288 69.2831 75.4376 69.3582 75.3488 69.4371L75.2888 69.488L75.032 69.698L74.9504 69.7616L74.702 69.9538C74.6708 69.9793 74.6396 70.0022 74.6096 70.0238C74.528 70.0862 74.4452 70.146 74.3636 70.2045L74.2604 70.2784L74.0144 70.4489L73.904 70.5227C73.8231 70.5782 73.7415 70.6325 73.6592 70.6856L73.5428 70.7594L73.298 70.9122L73.178 70.9847C73.0952 71.0356 73.0124 71.084 72.9296 71.1311L72.8096 71.1985L72.5552 71.3411L72.4388 71.4022C72.35 71.4493 72.2636 71.4951 72.1748 71.5396L72.0788 71.5867C71.7596 71.7445 71.4332 71.8922 71.1032 72.0284L71.0132 72.0665C70.934 72.0984 70.8536 72.1302 70.7732 72.1594C70.7168 72.1802 70.6608 72.2023 70.6052 72.2256L70.3844 72.3058L70.1948 72.3733L69.9788 72.4458L69.7784 72.5107C69.7079 72.5329 69.6371 72.5541 69.566 72.5744L69.3572 72.6367C69.2876 72.6571 69.2156 72.6749 69.146 72.694C69.0044 72.7298 68.8628 72.7654 68.7212 72.8009L68.4992 72.8518L68.2916 72.8976C68.216 72.9142 68.138 72.9282 68.0636 72.9422C67.9952 72.9549 67.9256 72.9689 67.856 72.9804L67.6232 73.0185C67.5548 73.0287 67.4876 73.0414 67.4192 73.0491C67.3376 73.0618 67.256 73.072 67.1768 73.0822L66.9776 73.1076L66.7256 73.1331L66.5324 73.1522L66.2648 73.1725C66.2036 73.1764 66.1448 73.1827 66.0824 73.1853C65.984 73.1904 65.8832 73.1954 65.7848 73.198C65.732 73.198 65.6816 73.2031 65.63 73.2056C65.48 73.2094 65.3264 73.212 65.174 73.212C59.8064 73.212 55.0328 70.4591 52.0352 66.2145L52.0256 66.2336L52.0136 66.2145C51.7486 65.8362 51.4042 65.5286 51.0076 65.3161C50.611 65.1035 50.1731 64.9919 49.7288 64.9902Z" fill="#D9D9D9"/>
</svg>
