<svg width="250" height="56" viewBox="0 0 250 56" fill="none" xmlns="http://www.w3.org/2000/svg">
<g clip-path="url(#clip0_1_1562)">
<path d="M84 18.7437V0H92.3857C93.8589 0 95.096 0.192197 96.097 0.57659C97.1043 0.960983 97.8629 1.50401 98.3729 2.20568C98.8891 2.90735 99.1472 3.7341 99.1472 4.68594C99.1472 5.3754 98.9898 6.00385 98.6751 6.57129C98.3666 7.13873 97.9322 7.61464 97.3719 7.99904C96.8116 8.37733 96.1568 8.63969 95.4076 8.78613V8.96917C96.2387 8.99968 96.9941 9.20408 97.6741 9.58237C98.354 9.95456 98.8954 10.4701 99.2983 11.1291C99.7012 11.782 99.9027 12.5507 99.9027 13.4355C99.9027 14.4605 99.6257 15.3727 99.0717 16.172C98.524 16.9713 97.7433 17.5997 96.7297 18.0573C95.7161 18.5149 94.5074 18.7437 93.1034 18.7437H84ZM89.2505 14.6802H91.7058C92.5872 14.6802 93.2482 14.5215 93.6889 14.2042C94.1296 13.8809 94.35 13.4049 94.35 12.7765C94.35 12.3372 94.2461 11.965 94.0383 11.6599C93.8306 11.3548 93.5347 11.123 93.1507 10.9644C92.7729 10.8057 92.3165 10.7264 91.7814 10.7264H89.2505V14.6802ZM89.2505 7.57803H91.4036C91.8632 7.57803 92.2693 7.50787 92.6218 7.36753C92.9744 7.2272 93.2482 7.02585 93.4434 6.76349C93.6449 6.49502 93.7456 6.16859 93.7456 5.7842C93.7456 5.20456 93.5315 4.7622 93.1034 4.45713C92.6753 4.14595 92.1339 3.99037 91.4792 3.99037H89.2505V7.57803Z" fill="#EAEAEA"/>
<path d="M108.827 19C107.253 19 105.906 18.698 104.785 18.0939C103.664 17.4838 102.805 16.6357 102.207 15.5496C101.609 14.4575 101.31 13.1914 101.31 11.7514C101.31 10.3115 101.609 9.04849 102.207 7.96243C102.805 6.87026 103.664 6.02216 104.785 5.41811C105.906 4.80796 107.253 4.50289 108.827 4.50289C110.401 4.50289 111.748 4.80796 112.869 5.41811C113.989 6.02216 114.848 6.87026 115.447 7.96243C116.045 9.04849 116.344 10.3115 116.344 11.7514C116.344 13.1914 116.045 14.4575 115.447 15.5496C114.848 16.6357 113.989 17.4838 112.869 18.0939C111.748 18.698 110.401 19 108.827 19ZM108.865 15.2659C109.305 15.2659 109.686 15.1225 110.007 14.8357C110.328 14.549 110.577 14.1402 110.753 13.6093C110.929 13.0785 111.018 12.447 111.018 11.7148C111.018 10.9766 110.929 10.3451 110.753 9.82033C110.577 9.2895 110.328 8.8807 110.007 8.59393C109.686 8.30716 109.305 8.16378 108.865 8.16378C108.399 8.16378 107.999 8.30716 107.665 8.59393C107.332 8.8807 107.077 9.2895 106.9 9.82033C106.724 10.3451 106.636 10.9766 106.636 11.7148C106.636 12.447 106.724 13.0785 106.9 13.6093C107.077 14.1402 107.332 14.549 107.665 14.8357C107.999 15.1225 108.399 15.2659 108.865 15.2659Z" fill="#EAEAEA"/>
<path d="M125.447 19C123.873 19 122.526 18.698 121.405 18.0939C120.285 17.4838 119.425 16.6357 118.827 15.5496C118.229 14.4575 117.93 13.1914 117.93 11.7514C117.93 10.3115 118.229 9.04849 118.827 7.96243C119.425 6.87026 120.285 6.02216 121.405 5.41811C122.526 4.80796 123.873 4.50289 125.447 4.50289C127.021 4.50289 128.368 4.80796 129.489 5.41811C130.61 6.02216 131.469 6.87026 132.067 7.96243C132.665 9.04849 132.964 10.3115 132.964 11.7514C132.964 13.1914 132.665 14.4575 132.067 15.5496C131.469 16.6357 130.61 17.4838 129.489 18.0939C128.368 18.698 127.021 19 125.447 19ZM125.485 15.2659C125.926 15.2659 126.306 15.1225 126.628 14.8357C126.949 14.549 127.197 14.1402 127.374 13.6093C127.55 13.0785 127.638 12.447 127.638 11.7148C127.638 10.9766 127.55 10.3451 127.374 9.82033C127.197 9.2895 126.949 8.8807 126.628 8.59393C126.306 8.30716 125.926 8.16378 125.485 8.16378C125.019 8.16378 124.619 8.30716 124.286 8.59393C123.952 8.8807 123.697 9.2895 123.521 9.82033C123.344 10.3451 123.256 10.9766 123.256 11.7148C123.256 12.447 123.344 13.0785 123.521 13.6093C123.697 14.1402 123.952 14.549 124.286 14.8357C124.619 15.1225 125.019 15.2659 125.485 15.2659Z" fill="#EAEAEA"/>
<path d="M139.763 15.4123L139.801 9.40848H140.481L143.994 4.68594H149.849L143.956 12.0443H142.483L139.763 15.4123ZM135.079 18.7437V0H140.292V18.7437H135.079ZM144.032 18.7437L140.708 13.1792L144.107 9.59152L150 18.7437H144.032Z" fill="#EAEAEA"/>
<path d="M162.087 19C160.603 19 159.333 18.7113 158.276 18.134C157.22 17.5508 156.41 16.7402 155.846 15.7021C155.282 14.6582 155 13.4481 155 12.0718C155 10.6955 155.282 9.48834 155.846 8.45028C156.41 7.40638 157.22 6.59576 158.276 6.01842C159.333 5.43524 160.603 5.14365 162.087 5.14365C163.571 5.14365 164.841 5.43524 165.897 6.01842C166.954 6.59576 167.764 7.40638 168.328 8.45028C168.892 9.48834 169.174 10.6955 169.174 12.0718C169.174 13.4481 168.892 14.6582 168.328 15.7021C167.764 16.7402 166.954 17.5508 165.897 18.134C164.841 18.7113 163.571 19 162.087 19ZM162.123 15.4309C162.538 15.4309 162.897 15.2939 163.2 15.0198C163.502 14.7457 163.737 14.355 163.903 13.8476C164.069 13.3402 164.152 12.7366 164.152 12.0368C164.152 11.3312 164.069 10.7276 163.903 10.2261C163.737 9.71869 163.502 9.32796 163.2 9.05387C162.897 8.77977 162.538 8.64273 162.123 8.64273C161.683 8.64273 161.306 8.77977 160.992 9.05387C160.677 9.32796 160.437 9.71869 160.271 10.2261C160.104 10.7276 160.021 11.3312 160.021 12.0368C160.021 12.7366 160.104 13.3402 160.271 13.8476C160.437 14.355 160.677 14.7457 160.992 15.0198C161.306 15.2939 161.683 15.4309 162.123 15.4309Z" fill="#EAEAEA"/>
<path d="M179.359 5.3186V8.81768H170.207V5.3186H179.359ZM171.952 18.7551V4.9337C171.952 3.82566 172.153 2.90715 172.557 2.17818C172.961 1.4492 173.53 0.903929 174.266 0.542358C175.002 0.180786 175.869 0 176.866 0C177.489 0 178.095 0.0466548 178.682 0.139964C179.276 0.233273 179.715 0.314918 180 0.384899L179.288 3.84899C179.11 3.7965 178.902 3.75568 178.665 3.72652C178.427 3.69153 178.219 3.67403 178.041 3.67403C177.578 3.67403 177.267 3.77026 177.106 3.96271C176.946 4.15516 176.866 4.40884 176.866 4.72376V18.7551H171.952Z" fill="#EAEAEA"/>
<path d="M93.0887 54.5853L84 24.2513H93.3294L97.5427 42.9138H97.7835L102.779 24.2513H110.122L115.118 42.9731H115.359L119.572 24.2513H128.902L119.813 54.5853H111.808L106.571 37.6409H106.33L101.094 54.5853H93.0887Z" fill="#EAEAEA"/>
<path d="M131.731 54.5853V31.8348H140.037V54.5853H131.731ZM135.884 29.465C134.76 29.465 133.797 29.0996 132.995 28.3689C132.192 27.6382 131.791 26.7594 131.791 25.7325C131.791 24.7056 132.192 23.8267 132.995 23.096C133.797 22.3653 134.76 22 135.884 22C137.017 22 137.98 22.3653 138.773 23.096C139.575 23.8267 139.977 24.7056 139.977 25.7325C139.977 26.7594 139.575 27.6382 138.773 28.3689C137.98 29.0996 137.017 29.465 135.884 29.465Z" fill="#EAEAEA"/>
<path d="M152.575 24.2513V54.5853H144.269V24.2513H152.575Z" fill="#EAEAEA"/>
<path d="M165.174 54.8815C163.528 54.8815 162.014 54.4569 160.629 53.6077C159.255 52.7585 158.151 51.4699 157.319 49.7419C156.496 48.0139 156.085 45.8366 156.085 43.2101C156.085 40.465 156.516 38.2334 157.379 36.5153C158.252 34.7971 159.375 33.5381 160.75 32.7383C162.134 31.9385 163.589 31.5386 165.113 31.5386C166.257 31.5386 167.26 31.7361 168.123 32.1311C168.986 32.5162 169.708 33.0346 170.29 33.6863C170.872 34.3281 171.313 35.0341 171.614 35.8043H171.734V24.2513H180.041V54.5853H171.795V50.8528H171.614C171.293 51.623 170.831 52.3142 170.23 52.9264C169.638 53.5287 168.915 54.0076 168.063 54.3631C167.22 54.7087 166.257 54.8815 165.174 54.8815ZM168.243 48.6014C169.006 48.6014 169.658 48.3842 170.199 47.9497C170.751 47.5054 171.173 46.8833 171.463 46.0835C171.764 45.2738 171.915 44.316 171.915 43.2101C171.915 42.0844 171.764 41.1216 171.463 40.3218C171.173 39.5121 170.751 38.895 170.199 38.4704C169.658 38.0359 169.006 37.8187 168.243 37.8187C167.481 37.8187 166.829 38.0359 166.287 38.4704C165.755 38.895 165.344 39.5121 165.053 40.3218C164.772 41.1216 164.632 42.0844 164.632 43.2101C164.632 44.3357 164.772 45.3034 165.053 46.1131C165.344 46.9129 165.755 47.5301 166.287 47.9645C166.829 48.3891 167.481 48.6014 168.243 48.6014Z" fill="#EAEAEA"/>
<path d="M195.193 55C192.726 55 190.599 54.5359 188.813 53.6077C187.038 52.6697 185.668 51.3268 184.705 49.579C183.752 47.8214 183.276 45.7181 183.276 43.2693C183.276 40.9192 183.757 38.8653 184.72 37.1077C185.683 35.3501 187.043 33.9825 188.798 33.0049C190.554 32.0274 192.625 31.5386 195.013 31.5386C196.758 31.5386 198.338 31.8052 199.753 32.3384C201.167 32.8716 202.376 33.6468 203.379 34.6638C204.382 35.671 205.155 36.8954 205.696 38.3371C206.238 39.7787 206.509 41.4031 206.509 43.2101V45.1059H185.864V40.6032H198.865C198.855 39.9515 198.684 39.3788 198.353 38.8851C198.032 38.3815 197.596 37.9915 197.044 37.715C196.502 37.4286 195.886 37.2855 195.193 37.2855C194.521 37.2855 193.904 37.4286 193.342 37.715C192.781 37.9915 192.329 38.3766 191.988 38.8703C191.657 39.364 191.482 39.9417 191.462 40.6032V45.4614C191.462 46.1921 191.617 46.8438 191.928 47.4165C192.239 47.9892 192.685 48.4385 193.267 48.7644C193.849 49.0902 194.551 49.2531 195.374 49.2531C195.946 49.2531 196.467 49.1741 196.939 49.0162C197.42 48.8582 197.832 48.6311 198.173 48.3348C198.514 48.0287 198.765 47.6634 198.925 47.2388H206.509C206.248 48.8187 205.631 50.1912 204.658 51.3564C203.685 52.5117 202.396 53.4102 200.791 54.0521C199.196 54.684 197.33 55 195.193 55Z" fill="#EAEAEA"/>
<path d="M209.898 54.5853V31.8348H217.964V36.1598H218.205C218.626 34.5601 219.293 33.39 220.206 32.6495C221.129 31.9089 222.207 31.5386 223.441 31.5386C223.802 31.5386 224.158 31.5682 224.51 31.6275C224.871 31.6768 225.217 31.7509 225.548 31.8496V38.8259C225.137 38.6876 224.63 38.5839 224.028 38.5148C223.426 38.4457 222.91 38.4111 222.478 38.4111C221.666 38.4111 220.933 38.5938 220.281 38.9592C219.639 39.3146 219.133 39.8182 218.761 40.4699C218.39 41.1118 218.205 41.8671 218.205 42.7361V54.5853H209.898Z" fill="#EAEAEA"/>
<path d="M249.398 39.2406H241.754C241.714 38.7765 241.548 38.3766 241.257 38.0408C240.966 37.7051 240.59 37.4484 240.129 37.2706C239.677 37.083 239.176 36.9892 238.624 36.9892C237.912 36.9892 237.3 37.1176 236.788 37.3743C236.277 37.6311 236.026 37.9964 236.036 38.4704C236.026 38.8061 236.171 39.1171 236.472 39.4035C236.783 39.6899 237.38 39.912 238.263 40.07L242.958 40.8995C245.325 41.3241 247.086 42.0399 248.239 43.0471C249.403 44.0444 249.99 45.3824 250 47.061C249.99 48.6804 249.498 50.0875 248.525 51.2823C247.562 52.4672 246.243 53.3855 244.568 54.0373C242.903 54.6791 241.002 55 238.865 55C235.334 55 232.57 54.289 230.574 52.8671C228.587 51.4452 227.479 49.5691 227.248 47.2388H235.494C235.605 47.9596 235.966 48.5175 236.578 48.9125C237.2 49.2976 237.982 49.4901 238.925 49.4901C239.687 49.4901 240.314 49.3618 240.806 49.105C241.308 48.8483 241.563 48.4829 241.573 48.009C241.563 47.5745 241.343 47.2289 240.911 46.9722C240.49 46.7154 239.828 46.5081 238.925 46.3501L234.832 45.6391C232.475 45.2343 230.709 44.4641 229.535 43.3285C228.362 42.193 227.78 40.7316 227.79 38.9443C227.78 37.3645 228.201 36.0265 229.054 34.9304C229.917 33.8245 231.146 32.9852 232.741 32.4125C234.346 31.8299 236.247 31.5386 238.444 31.5386C241.784 31.5386 244.417 32.2199 246.343 33.5826C248.28 34.9452 249.298 36.8312 249.398 39.2406Z" fill="#EAEAEA"/>
<g clip-path="url(#clip1_1_1562)">
<path d="M11.5908 10.178C11.3368 10.178 11.0852 10.2311 10.8506 10.3343C10.616 10.4376 10.4028 10.5888 10.2234 10.7795C10.0439 10.9702 9.9017 11.1965 9.80482 11.4456C9.70794 11.6946 9.65831 11.9615 9.65879 12.2309V32.7422C9.65879 39.5487 14.8476 45.0673 21.2448 45.0673C27.6432 45.0673 32.8308 39.5487 32.8308 32.7422V18.3858C32.8308 17.2531 31.9656 16.3342 30.8988 16.3342C30.645 16.3345 30.3937 16.3879 30.1593 16.4913C29.925 16.5946 29.7121 16.7459 29.5329 16.9366C29.3537 17.1272 29.2117 17.3535 29.115 17.6024C29.0183 17.8512 28.9687 18.1179 28.9692 18.3871V32.6671C28.9692 37.2616 25.5036 40.9665 21.2448 40.9665C16.986 40.9665 13.5204 37.2629 13.5204 32.6684V12.2309C13.5204 11.0969 12.6564 10.178 11.5908 10.178ZM40.5528 1.94722e-07C38.2969 -0.000425447 36.09 0.696966 34.2022 2.00675C32.3144 3.31653 30.8277 5.18184 29.9244 7.37418C29.3652 8.72709 30.3276 10.2404 31.7196 10.2404C32.1004 10.2375 32.4722 10.1176 32.79 9.89505C33.1078 9.67253 33.3579 9.357 33.51 8.98673C34.7268 6.10655 37.4256 4.102 40.5504 4.102C44.8152 4.102 48.2844 7.83364 48.2844 12.418V32.7727C48.2844 33.3163 48.488 33.8377 48.8504 34.2221C49.2129 34.6065 49.7044 34.8225 50.217 34.8225C50.7295 34.8225 51.2211 34.6065 51.5835 34.2221C51.946 33.8377 52.1496 33.3163 52.1496 32.7727V12.3009C52.1496 5.50709 46.956 1.94722e-07 40.5504 1.94722e-07H40.5528Z" fill="#EAEAEA"/>
<path d="M40.5096 10.2455C39.4416 10.2455 38.574 11.1644 38.574 12.2945V32.7651C38.574 39.5602 43.776 45.066 50.1924 45.066C56.6076 45.066 61.8096 39.5576 61.8096 32.7651V30.7313C61.8096 29.6011 60.942 28.6822 59.874 28.6822C58.806 28.6822 57.9384 29.6011 57.9384 30.7313V32.6913C57.9384 37.2782 54.4632 41.0085 50.1924 41.0085C45.9204 41.0085 42.4464 37.2756 42.4464 32.6913V12.2945C42.4464 11.1644 41.5788 10.2455 40.5096 10.2455ZM0 12.3022C0 5.50836 5.1876 0 11.5848 0C17.9832 0 23.1708 5.50709 23.1708 12.3022V32.7727C23.1532 33.3033 22.942 33.806 22.5818 34.1748C22.2217 34.5435 21.7406 34.7496 21.24 34.7496C20.7394 34.7496 20.2583 34.5435 19.8982 34.1748C19.538 33.806 19.3268 33.3033 19.3092 32.7727V12.4205C19.3092 7.83618 15.8436 4.10327 11.5848 4.10327C7.326 4.10327 3.8616 7.83364 3.8616 12.4205V16.3864C3.84396 16.917 3.63281 17.4196 3.27264 17.7884C2.91248 18.1572 2.43141 18.3632 1.9308 18.3632C1.43019 18.3632 0.949125 18.1572 0.588957 17.7884C0.228789 17.4196 0.0176414 16.917 0 16.3864L0 12.3009L0 12.3022ZM1.794 24.5802C0.774 24.6527 0 25.6073 0 26.6967V33.586C0 39.3145 2.124 44.5964 5.574 48.5227C5.9412 48.9402 6.438 49.1489 6.9336 49.1489C7.4304 49.1489 7.8936 48.9542 8.2608 48.5635C8.60493 48.198 8.80218 47.7054 8.81113 47.189C8.82008 46.6726 8.64004 46.1726 8.3088 45.794C5.43805 42.5662 3.84081 38.2956 3.8448 33.8584V26.6242C3.8448 25.4927 2.982 24.5751 1.9212 24.5751L1.794 24.5802ZM64.6488 0.00636364H64.518C64.2538 0.0121308 63.9901 0.0346559 63.7284 0.0738182C63.7164 0.0738182 63.708 0.0763636 63.696 0.0789091C62.0861 0.322457 60.613 1.17371 59.5473 2.4764C58.4815 3.77909 57.8945 5.44579 57.894 7.17055V20.4795C57.894 21.6096 58.758 22.5273 59.8236 22.5273C59.8668 22.5273 59.9112 22.5273 59.9532 22.5235C60.978 22.4509 61.7532 21.4989 61.7532 20.4107V7.25964C61.7532 5.60891 62.9484 4.186 64.5048 4.10455C65.2366 4.06392 65.9552 4.32165 66.5136 4.82491C66.5424 4.85164 66.5712 4.87582 66.6012 4.90509C66.6312 4.93564 66.6648 4.96618 66.6936 4.99927C66.7284 5.03618 66.7632 5.07564 66.798 5.11636C66.8304 5.15455 66.8616 5.19273 66.8916 5.23218C66.9228 5.27164 66.9516 5.31236 66.9804 5.35309C67.002 5.38364 67.0236 5.41291 67.0428 5.44345C67.0812 5.50327 67.1184 5.56436 67.1508 5.62545C67.1664 5.65218 67.1796 5.67891 67.1928 5.70564C67.2288 5.77564 67.2624 5.84691 67.296 5.92073L67.32 5.98182C67.3946 6.16603 67.4509 6.35798 67.488 6.55455C67.506 6.64364 67.5192 6.73273 67.5288 6.82564L67.5324 6.87655C67.5408 6.97327 67.5468 7.06873 67.5468 7.168V33.8036C67.5468 34.7264 67.4772 35.6338 67.3428 36.5184C67.2969 36.8115 67.3116 37.1118 67.386 37.3983C67.4603 37.6848 67.5926 37.9507 67.7735 38.1776C67.9545 38.4045 68.1798 38.587 68.4338 38.7123C68.6879 38.8376 68.9646 38.9029 69.2448 38.9035H69.2532C70.2012 38.9035 71.0124 38.1704 71.16 37.1725C71.3238 36.0653 71.4056 34.9461 71.4048 33.8253V7.16927C71.4073 5.31987 70.7327 3.54167 69.5232 2.20945C68.3936 0.95637 66.8725 0.182294 65.244 0.0318182L65.1708 0.0254545C65.0381 0.0159872 64.9053 0.00919814 64.7724 0.00509091C64.7328 0.00509091 64.692 0 64.6512 0L64.6488 0.00636364Z" fill="#EAEAEA"/>
<path d="M35.7288 42.9902C34.8264 42.9902 33.9768 43.4445 33.4368 44.212L33.4284 44.2247C30.4332 48.4845 25.6536 51.2464 20.2788 51.2464C18.6872 51.2474 17.104 51.0012 15.5796 50.5158C15.3996 50.4573 15.2196 50.4305 15.0372 50.4305C14.5368 50.4305 14.0472 50.6431 13.6812 51.0287C12.6552 52.1207 13.0992 53.9764 14.4852 54.4294C16.32 55.0289 18.2652 55.3127 20.2728 55.3127H20.3208C23.4012 55.3064 26.316 54.6102 28.9272 53.2954C31.538 51.9804 33.855 50.091 35.724 47.7527C37.6238 50.1304 39.9907 52.0389 42.6588 53.3448C45.3269 54.6506 48.2319 55.3223 51.1704 55.3127C55.6548 55.3127 59.796 53.8071 63.1548 51.1865C63.2628 51.1025 63.3576 51.0096 63.4404 50.9142L63.444 50.9091C63.6564 50.7373 63.864 50.5629 64.068 50.3822L64.104 50.3516C64.29 50.1862 64.4712 50.0207 64.6512 49.8502C64.6836 49.8196 64.7184 49.7878 64.7508 49.7547C64.902 49.6096 65.0484 49.462 65.1948 49.3118L65.3724 49.1336C65.4972 49.0038 65.6184 48.8702 65.7384 48.7365C65.8032 48.6653 65.8704 48.5953 65.9364 48.5202L65.9544 48.5011C66.342 48.0594 66.7152 47.6038 67.0668 47.1291C68.0652 45.7876 67.1808 43.8162 65.574 43.8162H65.5176C64.9332 43.8162 64.386 44.1089 64.0236 44.5989C63.737 44.9808 63.436 45.3501 63.1212 45.7062L63.1152 45.7113C62.6544 46.2318 62.1636 46.7218 61.6476 47.1787L61.6176 47.2042C61.5288 47.2831 61.4376 47.3582 61.3488 47.4371L61.2888 47.488L61.032 47.698L60.9504 47.7616L60.702 47.9538C60.6708 47.9793 60.6396 48.0022 60.6096 48.0238C60.528 48.0862 60.4452 48.146 60.3636 48.2045L60.2604 48.2784L60.0144 48.4489L59.904 48.5227C59.8231 48.5782 59.7415 48.6325 59.6592 48.6856L59.5428 48.7594L59.298 48.9122L59.178 48.9847C59.0952 49.0356 59.0124 49.084 58.9296 49.1311L58.8096 49.1985L58.5552 49.3411L58.4388 49.4022C58.35 49.4493 58.2636 49.4951 58.1748 49.5396L58.0788 49.5867C57.7596 49.7445 57.4332 49.8922 57.1032 50.0284L57.0132 50.0665C56.934 50.0984 56.8536 50.1302 56.7732 50.1594C56.7168 50.1802 56.6608 50.2023 56.6052 50.2256L56.3844 50.3058L56.1948 50.3733L55.9788 50.4458L55.7784 50.5107C55.7079 50.5329 55.6371 50.5541 55.566 50.5744L55.3572 50.6367C55.2876 50.6571 55.2156 50.6749 55.146 50.694C55.0044 50.7298 54.8628 50.7654 54.7212 50.8009L54.4992 50.8518L54.2916 50.8976C54.216 50.9142 54.138 50.9282 54.0636 50.9422C53.9952 50.9549 53.9256 50.9689 53.856 50.9804L53.6232 51.0185C53.5548 51.0287 53.4876 51.0414 53.4192 51.0491C53.3376 51.0618 53.256 51.072 53.1768 51.0822L52.9776 51.1076L52.7256 51.1331L52.5324 51.1522L52.2648 51.1725C52.2036 51.1764 52.1448 51.1827 52.0824 51.1853C51.984 51.1904 51.8832 51.1954 51.7848 51.198C51.732 51.198 51.6816 51.2031 51.63 51.2056C51.48 51.2094 51.3264 51.212 51.174 51.212C45.8064 51.212 41.0328 48.4591 38.0352 44.2145L38.0256 44.2336L38.0136 44.2145C37.7486 43.8362 37.4042 43.5286 37.0076 43.3161C36.611 43.1035 36.1731 42.9919 35.7288 42.9902Z" fill="#EAEAEA"/>
</g>
</g>
<defs>
<clipPath id="clip0_1_1562">
<rect width="250" height="56" fill="white"/>
</clipPath>
<clipPath id="clip1_1_1562">
<rect width="72" height="56" fill="white"/>
</clipPath>
</defs>
</svg>
