<svg width="56" height="56" viewBox="0 0 56 56" fill="none" xmlns="http://www.w3.org/2000/svg">
<rect x="1.48248" y="0.5" width="53.0351" height="55" rx="15.5" stroke="#987DFF"/>
<path d="M43.694 40.6771L37.7575 34.5428C39.6729 32.0139 40.7122 28.891 40.7083 25.6762C40.7083 22.8131 39.8891 20.0142 38.3543 17.6336C36.8194 15.2531 34.6379 13.3976 32.0855 12.3019C29.5332 11.2063 26.7246 10.9196 24.0151 11.4782C21.3055 12.0367 18.8166 13.4155 16.8631 15.44C14.9096 17.4645 13.5793 20.0439 13.0403 22.852C12.5013 25.6601 12.778 28.5708 13.8352 31.2159C14.8924 33.8611 16.6827 36.122 18.9798 37.7126C21.2769 39.3033 23.9775 40.1523 26.7401 40.1523C29.8422 40.1563 32.8555 39.0792 35.2957 37.0942L41.2147 43.2466C41.377 43.4162 41.5701 43.5508 41.7829 43.6427C41.9956 43.7345 42.2239 43.7818 42.4544 43.7818C42.6849 43.7818 42.9131 43.7345 43.1258 43.6427C43.3386 43.5508 43.5317 43.4162 43.694 43.2466C43.8577 43.0784 43.9876 42.8782 44.0762 42.6577C44.1649 42.4372 44.2105 42.2007 44.2105 41.9618C44.2105 41.7229 44.1649 41.4864 44.0762 41.2659C43.9876 41.0454 43.8577 40.8453 43.694 40.6771ZM16.264 25.6762C16.264 23.5288 16.8784 21.4297 18.0295 19.6443C19.1807 17.8588 20.8168 16.4673 22.7311 15.6455C24.6453 14.8238 26.7517 14.6087 28.7839 15.0277C30.8161 15.4466 32.6828 16.4806 34.1479 17.999C35.613 19.5174 36.6108 21.452 37.015 23.558C37.4192 25.6641 37.2117 27.8471 36.4188 29.831C35.6259 31.8149 34.2832 33.5105 32.5604 34.7035C30.8376 35.8965 28.8121 36.5333 26.7401 36.5333C23.9617 36.5333 21.297 35.3894 19.3324 33.3533C17.3677 31.3172 16.264 28.5556 16.264 25.6762Z" fill="#987DFF"/>
</svg>
