<svg width="55" height="55" viewBox="0 0 55 55" fill="none" xmlns="http://www.w3.org/2000/svg">
<mask id="mask0_12_1192" style="mask-type:alpha" maskUnits="userSpaceOnUse" x="28" y="30" width="20" height="20">
<path d="M38.0182 46.3934C41.5391 46.3934 44.3934 43.5392 44.3934 40.0182C44.3934 36.4973 41.5391 33.643 38.0182 33.643C34.4972 33.643 31.6429 36.4973 31.6429 40.0182C31.6429 43.5392 34.4972 46.3934 38.0182 46.3934Z" fill="#D9D9D9"/>
<path d="M38.0182 50C37.5173 50 37.1075 49.6266 37.1075 49.1257V49.0528C37.1075 48.5519 37.5173 48.1421 38.0182 48.1421C38.5191 48.1421 38.929 48.5519 38.929 49.0528C38.929 49.5537 38.5191 50 38.0182 50ZM44.5209 47.4317C44.2842 47.4317 44.0565 47.3406 43.8743 47.1676L43.7559 47.0492C43.4007 46.694 43.4007 46.1202 43.7559 45.765C44.1111 45.4098 44.6849 45.4098 45.0401 45.765L45.1585 45.8834C45.5137 46.2386 45.5137 46.8124 45.1585 47.1676C44.9854 47.3406 44.7577 47.4317 44.5209 47.4317ZM31.5155 47.4317C31.2787 47.4317 31.051 47.3406 30.8689 47.1676C30.5137 46.8124 30.5137 46.2386 30.8689 45.8834L30.9872 45.765C31.3424 45.4098 31.9162 45.4098 32.2714 45.765C32.6266 46.1202 32.6266 46.694 32.2714 47.0492L32.153 47.1676C31.98 47.3406 31.7432 47.4317 31.5155 47.4317ZM47.1257 40.929H47.0528C46.5519 40.929 46.1421 40.5191 46.1421 40.0182C46.1421 39.5173 46.5519 39.1075 47.0528 39.1075C47.5537 39.1075 48 39.5173 48 40.0182C48 40.5191 47.6266 40.929 47.1257 40.929ZM28.9836 40.929H28.9107C28.4098 40.929 28 40.5191 28 40.0182C28 39.5173 28.4098 39.1075 28.9107 39.1075C29.4117 39.1075 29.8579 39.5173 29.8579 40.0182C29.8579 40.5191 29.4845 40.929 28.9836 40.929ZM44.4026 34.5446C44.1658 34.5446 43.9381 34.4536 43.7559 34.2805C43.4007 33.9253 43.4007 33.3515 43.7559 32.9964L43.8743 32.878C44.2295 32.5228 44.8033 32.5228 45.1585 32.878C45.5137 33.2332 45.5137 33.8069 45.1585 34.1621L45.0401 34.2805C44.867 34.4536 44.6393 34.5446 44.4026 34.5446ZM31.6339 34.5446C31.3971 34.5446 31.1694 34.4536 30.9872 34.2805L30.8689 34.153C30.5137 33.7978 30.5137 33.224 30.8689 32.8689C31.224 32.5137 31.7978 32.5137 32.153 32.8689L32.2714 32.9872C32.6266 33.3424 32.6266 33.9162 32.2714 34.2714C32.0984 34.4536 31.8616 34.5446 31.6339 34.5446ZM38.0182 31.8579C37.5173 31.8579 37.1075 31.4845 37.1075 30.9836V30.9107C37.1075 30.4098 37.5173 30 38.0182 30C38.5191 30 38.929 30.4098 38.929 30.9107C38.929 31.4117 38.5191 31.8579 38.0182 31.8579Z" fill="#D9D9D9"/>
</mask>
<g mask="url(#mask0_12_1192)">
<path d="M-6.39014 64.3901L61.3154 -1.16605V64.3901H-6.39014Z" fill="#D9D9D9"/>
</g>
<mask id="mask1_12_1192" style="mask-type:alpha" maskUnits="userSpaceOnUse" x="6" y="5" width="18" height="20">
<path d="M23.2657 21.5674C23.2089 21.2784 22.9396 20.7618 21.8666 20.563C21.2729 20.4523 20.6896 20.2859 20.1321 20.0497C18.0668 19.1857 16.513 17.5483 15.723 15.618C15.0213 13.9189 14.912 12.0025 15.5624 10.2185C15.9309 9.22338 16.4844 8.33653 17.2257 7.57875C17.9483 6.84382 17.8405 6.27784 17.7136 6.01247C17.5808 5.73503 17.1982 5.2757 16.1016 5.3064C11.8636 5.44428 8.26066 8.17969 7.11178 12.1117C6.04694 15.8167 7.51674 19.8648 10.5439 22.3058C11.2687 22.8918 12.0806 23.3811 12.9679 23.7493C13.1087 23.8114 13.2495 23.8735 13.3936 23.9268C16.4095 25.0436 19.747 24.7112 22.3991 23.0232C23.3028 22.4348 23.3315 21.8598 23.2657 21.5674Z" fill="#101010"/>
</mask>
<g mask="url(#mask1_12_1192)">
<path d="M0 47.5L48 0H0V47.5Z" fill="#D9D9D9"/>
</g>
<path d="M12 42.0161L43.0161 11" stroke="#D9D9D9" stroke-width="2" stroke-linecap="round"/>
<rect x="0.5" y="0.5" width="54" height="54" rx="15.5" stroke="#D9D9D9"/>
</svg>
