<svg width="55" height="55" viewBox="0 0 55 55" fill="none" xmlns="http://www.w3.org/2000/svg">
<path d="M28.031 37.8689C34.0166 37.8689 38.8689 33.0166 38.8689 27.031C38.8689 21.0454 34.0166 16.1931 28.031 16.1931C22.0454 16.1931 17.1931 21.0454 17.1931 27.031C17.1931 33.0166 22.0454 37.8689 28.031 37.8689Z" fill="#987DFF"/>
<path d="M28.031 44C27.1794 44 26.4827 43.3652 26.4827 42.5137V42.3898C26.4827 41.5383 27.1794 40.8415 28.031 40.8415C28.8825 40.8415 29.5792 41.5383 29.5792 42.3898C29.5792 43.2413 28.8825 44 28.031 44ZM39.0856 39.6339C38.6831 39.6339 38.296 39.4791 37.9863 39.1849L37.7851 38.9836C37.1812 38.3798 37.1812 37.4044 37.7851 36.8005C38.3889 36.1967 39.3643 36.1967 39.9681 36.8005L40.1694 37.0018C40.7732 37.6056 40.7732 38.5811 40.1694 39.1849C39.8752 39.4791 39.4882 39.6339 39.0856 39.6339ZM16.9763 39.6339C16.5738 39.6339 16.1867 39.4791 15.877 39.1849C15.2732 38.5811 15.2732 37.6056 15.877 37.0018L16.0783 36.8005C16.6821 36.1967 17.6576 36.1967 18.2614 36.8005C18.8652 37.4044 18.8652 38.3798 18.2614 38.9836L18.0601 39.1849C17.7659 39.4791 17.3634 39.6339 16.9763 39.6339ZM43.5137 28.5792H43.3898C42.5383 28.5792 41.8415 27.8825 41.8415 27.031C41.8415 26.1794 42.5383 25.4827 43.3898 25.4827C44.2413 25.4827 45 26.1794 45 27.031C45 27.8825 44.3652 28.5792 43.5137 28.5792ZM12.6721 28.5792H12.5483C11.6967 28.5792 11 27.8825 11 27.031C11 26.1794 11.6967 25.4827 12.5483 25.4827C13.3998 25.4827 14.1585 26.1794 14.1585 27.031C14.1585 27.8825 13.5237 28.5792 12.6721 28.5792ZM38.8843 17.7259C38.4818 17.7259 38.0947 17.571 37.7851 17.2769C37.1812 16.673 37.1812 15.6976 37.7851 15.0938L37.9863 14.8925C38.5902 14.2887 39.5656 14.2887 40.1694 14.8925C40.7732 15.4964 40.7732 16.4718 40.1694 17.0756L39.9681 17.2769C39.674 17.571 39.2869 17.7259 38.8843 17.7259ZM17.1776 17.7259C16.775 17.7259 16.388 17.571 16.0783 17.2769L15.877 17.0601C15.2732 16.4563 15.2732 15.4809 15.877 14.877C16.4809 14.2732 17.4563 14.2732 18.0601 14.877L18.2614 15.0783C18.8652 15.6821 18.8652 16.6576 18.2614 17.2614C17.9672 17.571 17.5647 17.7259 17.1776 17.7259ZM28.031 13.1585C27.1794 13.1585 26.4827 12.5237 26.4827 11.6721V11.5483C26.4827 10.6967 27.1794 10 28.031 10C28.8825 10 29.5792 10.6967 29.5792 11.5483C29.5792 12.3998 28.8825 13.1585 28.031 13.1585Z" fill="#987DFF"/>
<rect x="1" y="1" width="53" height="53" rx="15" stroke="#987DFF" stroke-width="2"/>
</svg>
