<svg width="55" height="55" viewBox="0 0 55 55" fill="none" xmlns="http://www.w3.org/2000/svg">
<mask id="mask0_12_1348" style="mask-type:alpha" maskUnits="userSpaceOnUse" x="31" y="30" width="20" height="20">
<path d="M41.0182 46.3934C44.5391 46.3934 47.3934 43.5392 47.3934 40.0182C47.3934 36.4973 44.5391 33.643 41.0182 33.643C37.4972 33.643 34.6429 36.4973 34.6429 40.0182C34.6429 43.5392 37.4972 46.3934 41.0182 46.3934Z" fill="#D9D9D9"/>
<path d="M41.0182 50C40.5173 50 40.1075 49.6266 40.1075 49.1257V49.0528C40.1075 48.5519 40.5173 48.1421 41.0182 48.1421C41.5191 48.1421 41.929 48.5519 41.929 49.0528C41.929 49.5537 41.5191 50 41.0182 50ZM47.5209 47.4317C47.2842 47.4317 47.0565 47.3406 46.8743 47.1676L46.7559 47.0492C46.4007 46.694 46.4007 46.1202 46.7559 45.765C47.1111 45.4098 47.6849 45.4098 48.0401 45.765L48.1585 45.8834C48.5137 46.2386 48.5137 46.8124 48.1585 47.1676C47.9854 47.3406 47.7577 47.4317 47.5209 47.4317ZM34.5155 47.4317C34.2787 47.4317 34.051 47.3406 33.8689 47.1676C33.5137 46.8124 33.5137 46.2386 33.8689 45.8834L33.9872 45.765C34.3424 45.4098 34.9162 45.4098 35.2714 45.765C35.6266 46.1202 35.6266 46.694 35.2714 47.0492L35.153 47.1676C34.98 47.3406 34.7432 47.4317 34.5155 47.4317ZM50.1257 40.929H50.0528C49.5519 40.929 49.1421 40.5191 49.1421 40.0182C49.1421 39.5173 49.5519 39.1075 50.0528 39.1075C50.5537 39.1075 51 39.5173 51 40.0182C51 40.5191 50.6266 40.929 50.1257 40.929ZM31.9836 40.929H31.9107C31.4098 40.929 31 40.5191 31 40.0182C31 39.5173 31.4098 39.1075 31.9107 39.1075C32.4117 39.1075 32.8579 39.5173 32.8579 40.0182C32.8579 40.5191 32.4845 40.929 31.9836 40.929ZM47.4026 34.5446C47.1658 34.5446 46.9381 34.4536 46.7559 34.2805C46.4007 33.9253 46.4007 33.3515 46.7559 32.9964L46.8743 32.878C47.2295 32.5228 47.8033 32.5228 48.1585 32.878C48.5137 33.2332 48.5137 33.8069 48.1585 34.1621L48.0401 34.2805C47.867 34.4536 47.6393 34.5446 47.4026 34.5446ZM34.6339 34.5446C34.3971 34.5446 34.1694 34.4536 33.9872 34.2805L33.8689 34.153C33.5137 33.7978 33.5137 33.224 33.8689 32.8689C34.224 32.5137 34.7978 32.5137 35.153 32.8689L35.2714 32.9872C35.6266 33.3424 35.6266 33.9162 35.2714 34.2714C35.0984 34.4536 34.8616 34.5446 34.6339 34.5446ZM41.0182 31.8579C40.5173 31.8579 40.1075 31.4845 40.1075 30.9836V30.9107C40.1075 30.4098 40.5173 30 41.0182 30C41.5191 30 41.929 30.4098 41.929 30.9107C41.929 31.4117 41.5191 31.8579 41.0182 31.8579Z" fill="#D9D9D9"/>
</mask>
<g mask="url(#mask0_12_1348)">
<path d="M-3.39014 64.3901L64.3154 -1.16605V64.3901H-3.39014Z" fill="#101010"/>
</g>
<mask id="mask1_12_1348" style="mask-type:alpha" maskUnits="userSpaceOnUse" x="6" y="5" width="18" height="20">
<path d="M23.2656 21.5674C23.2088 21.2784 22.9395 20.7618 21.8665 20.563C21.2728 20.4523 20.6894 20.2859 20.132 20.0497C18.0667 19.1857 16.5129 17.5483 15.7228 15.618C15.0212 13.9189 14.9119 12.0025 15.5623 10.2185C15.9307 9.22338 16.4843 8.33653 17.2256 7.57875C17.9482 6.84382 17.8404 6.27784 17.7134 6.01247C17.5807 5.73503 17.198 5.2757 16.1015 5.3064C11.8635 5.44428 8.26054 8.17969 7.11165 12.1117C6.04681 15.8167 7.51662 19.8648 10.5438 22.3058C11.2686 22.8918 12.0804 23.3811 12.9678 23.7493C13.1086 23.8114 13.2494 23.8735 13.3934 23.9268C16.4094 25.0436 19.7469 24.7112 22.3989 23.0232C23.3027 22.4348 23.3314 21.8598 23.2656 21.5674Z" fill="#101010"/>
</mask>
<g mask="url(#mask1_12_1348)">
<path d="M0 47.5L48 0H0V47.5Z" fill="#101010"/>
</g>
<path d="M12 42.0161L43.0161 11" stroke="#101010" stroke-width="2" stroke-linecap="round"/>
<rect x="0.5" y="0.5" width="54" height="54" rx="15.5" stroke="#101010"/>
</svg>
