<svg width="55" height="55" viewBox="0 0 55 55" fill="none" xmlns="http://www.w3.org/2000/svg">
<path d="M44.7241 33.6925C44.4435 33.2333 43.654 32.5189 41.6892 32.8591C40.6016 33.0462 39.4964 33.1312 38.3912 33.0802C34.3038 32.9101 30.6023 31.0902 28.0235 28.2837C25.7429 25.8174 24.3396 22.6026 24.322 19.1328C24.322 17.1938 24.7079 15.3228 25.4973 13.5538C26.2692 11.8359 25.7254 10.9344 25.3394 10.5602C24.936 10.169 23.9887 9.62475 22.1292 10.3732C14.9542 13.2987 10.5159 20.2724 11.0422 27.7394C11.5685 34.7641 16.6558 40.7683 23.3922 43.0305C25.0061 43.5748 26.7078 43.8979 28.462 43.966C28.7427 43.983 29.0234 44 29.3041 44C35.1809 44 40.6893 41.3126 44.1628 36.7372C45.3381 35.1553 45.0224 34.1518 44.7241 33.6925Z" fill="#5136B8"/>
<rect x="1" y="1" width="53" height="53" rx="15" stroke="#5136B8" stroke-width="2"/>
</svg>
